<svg width="19" height="16" viewBox="0 0 19 16" fill="none" xmlns="http://www.w3.org/2000/svg">
<g clip-path="url(#clip0_16806_224)">
<path d="M7.08089 0.326174L0.330893 7.07617C0.226013 7.18069 0.142798 7.30488 0.0860166 7.44163C0.0292355 7.57837 5.62635e-06 7.72498 5.62811e-06 7.87305C5.62988e-06 8.02111 0.0292355 8.16772 0.0860166 8.30447C0.142798 8.44122 0.226013 8.56541 0.330893 8.66992L7.08089 15.4199C7.29224 15.6313 7.57888 15.75 7.87777 15.75C8.17665 15.75 8.4633 15.6313 8.67464 15.4199C8.88599 15.2086 9.00472 14.9219 9.00472 14.623C9.00472 14.3242 8.88599 14.0375 8.67464 13.8262L3.84558 8.99711L17.6268 8.99711C17.9252 8.99711 18.2113 8.87858 18.4223 8.66761C18.6333 8.45663 18.7518 8.17048 18.7518 7.87211C18.7518 7.57374 18.6333 7.28759 18.4223 7.07662C18.2113 6.86564 17.9252 6.74711 17.6268 6.74711L3.84558 6.74711L8.67558 1.91805C8.88693 1.70671 9.00566 1.42006 9.00566 1.12117C9.00566 0.822289 8.88693 0.535644 8.67558 0.3243C8.46424 0.112956 8.17759 -0.00577914 7.87871 -0.00577914C7.57982 -0.00577913 7.29318 0.112956 7.08183 0.3243L7.08089 0.326174Z" fill="black"/>
</g>
<defs>
<clipPath id="clip0_16806_224">
<rect width="18.7518" height="15.7559" fill="white"/>
</clipPath>
</defs>
</svg>
