<svg width="19" height="16" viewBox="0 0 19 16" fill="none" xmlns="http://www.w3.org/2000/svg">
<g clip-path="url(#clip0_16806_227)">
<path d="M11.6709 0.326174L18.4209 7.07617C18.5258 7.18069 18.609 7.30488 18.6658 7.44163C18.7226 7.57837 18.7518 7.72498 18.7518 7.87305C18.7518 8.02111 18.7226 8.16772 18.6658 8.30447C18.609 8.44122 18.5258 8.56541 18.4209 8.66992L11.6709 15.4199C11.4596 15.6313 11.1729 15.75 10.8741 15.75C10.5752 15.75 10.2885 15.6313 10.0772 15.4199C9.86584 15.2086 9.74711 14.9219 9.74711 14.623C9.74711 14.3242 9.86584 14.0375 10.0772 13.8262L14.9063 8.99711L1.125 8.99711C0.826632 8.99711 0.540483 8.87858 0.329505 8.66761C0.118527 8.45663 9.03849e-08 8.17048 9.39429e-08 7.87211C9.75009e-08 7.57374 0.118527 7.28759 0.329505 7.07662C0.540483 6.86564 0.826632 6.74711 1.125 6.74711L14.9063 6.74711L10.0762 1.91805C9.86491 1.70671 9.74617 1.42006 9.74617 1.12117C9.74617 0.822289 9.86491 0.535644 10.0762 0.3243C10.2876 0.112956 10.5742 -0.00577914 10.8731 -0.00577914C11.172 -0.00577913 11.4587 0.112956 11.67 0.3243L11.6709 0.326174Z" fill="black"/>
</g>
<defs>
<clipPath id="clip0_16806_227">
<rect width="18.7518" height="15.7559" fill="white"/>
</clipPath>
</defs>
</svg>
